# Blender v2.79 (sub 0) OBJ File: ''
# www.blender.org
mtllib hex2.mtl
o node_id30_mesh_id31
v 0.250000 0.000003 -0.502720
v -0.250000 0.000002 -0.502719
v -0.250000 1.000002 -0.502719
v 0.250000 1.000003 -0.502719
v -0.250000 0.000002 -0.502719
v -0.500000 0.000001 -0.000424
v -0.500000 1.000001 -0.000424
v -0.250000 1.000002 -0.502719
v 0.500000 0.000003 -0.000424
v 0.250000 0.000003 -0.502720
v 0.250000 1.000003 -0.502719
v 0.500000 1.000003 -0.000424
v 0.250000 0.000001 0.501871
v 0.250000 1.000001 0.501871
v -0.250000 1.000000 0.501871
v -0.250000 -0.000000 0.501871
v -0.250000 -0.000000 0.501871
v -0.250000 1.000000 0.501871
v -0.500000 1.000001 -0.000424
v -0.500000 0.000001 -0.000424
v 0.500000 0.000003 -0.000424
v 0.500000 1.000003 -0.000424
v 0.250000 1.000001 0.501871
v 0.250000 0.000001 0.501871
v 0.500000 0.000003 -0.000424
v 0.250000 0.000001 0.501871
v -0.250000 -0.000000 0.501871
v -0.250000 0.000002 -0.502719
v -0.250000 -0.000000 0.501871
v -0.500000 0.000001 -0.000424
v -0.250000 0.000002 -0.502719
v 0.250000 0.000003 -0.502720
v 0.500000 0.000003 -0.000424
v -0.250000 0.000002 -0.502719
v -0.500000 1.000001 -0.000424
v -0.250000 1.000000 0.501871
v 0.250000 1.000001 0.501871
v 0.250000 1.000003 -0.502719
v 0.250000 1.000001 0.501871
v 0.500000 1.000003 -0.000424
v 0.250000 1.000003 -0.502719
v -0.250000 1.000002 -0.502719
v -0.500000 1.000001 -0.000424
v 0.250000 1.000003 -0.502719
vt 0.611230 0.376125
vt 0.611230 0.635254
vt 0.585317 0.635254
vt 0.585317 0.376125
vt 0.688572 0.673141
vt 0.688572 0.431994
vt 0.716417 0.431994
vt 0.716417 0.673141
vt 0.674353 0.431994
vt 0.674353 0.673141
vt 0.646507 0.673141
vt 0.646507 0.431994
vt 0.566526 0.635253
vt 0.540613 0.635253
vt 0.540613 0.376124
vt 0.566526 0.376124
vt 0.688572 0.190847
vt 0.716417 0.190847
vt 0.716417 0.431994
vt 0.688572 0.431994
vt 0.674353 0.431994
vt 0.646507 0.431994
vt 0.646507 0.190847
vt 0.674353 0.190847
vt 0.020547 0.251142
vt 0.150112 0.026730
vt 0.409241 0.026730
vt 0.409241 0.475555
vt 0.409241 0.026730
vt 0.538805 0.251142
vt 0.409241 0.475555
vt 0.150112 0.475555
vt 0.020547 0.251142
vt 0.409241 0.475555
vt 0.018486 0.747160
vt 0.148051 0.522747
vt 0.407180 0.522747
vt 0.407180 0.971572
vt 0.407180 0.522747
vt 0.536744 0.747160
vt 0.407180 0.971572
vt 0.148051 0.971572
vt 0.018486 0.747160
vt 0.407180 0.971572
vn -0.0000 0.0000 -1.0000
vn -0.8952 0.0000 -0.4456
vn 0.8952 0.0000 -0.4456
vn -0.0000 -0.0000 1.0000
vn -0.8952 -0.0000 0.4456
vn 0.8952 -0.0000 0.4456
vn 0.0000 -1.0000 -0.0000
vn -0.0000 1.0000 0.0000
usemtl Material_95
s 1
f 1/1/1 2/2/1 3/3/1
f 3/3/1 4/4/1 1/1/1
f 5/5/2 6/6/2 7/7/2
f 7/7/2 8/8/2 5/5/2
f 9/9/3 10/10/3 11/11/3
f 11/11/3 12/12/3 9/9/3
f 13/13/4 14/14/4 15/15/4
f 15/15/4 16/16/4 13/13/4
f 17/17/5 18/18/5 19/19/5
f 19/19/5 20/20/5 17/17/5
f 21/21/6 22/22/6 23/23/6
f 23/23/6 24/24/6 21/21/6
f 25/25/7 26/26/7 27/27/7
f 27/27/7 28/28/7 25/25/7
f 29/29/7 30/30/7 31/31/7
f 32/32/7 33/33/7 34/34/7
f 35/35/8 36/36/8 37/37/8
f 37/37/8 38/38/8 35/35/8
f 39/39/8 40/40/8 41/41/8
f 42/42/8 43/43/8 44/44/8
